<svg xmlns="http://www.w3.org/2000/svg" xmlns:xlink="http://www.w3.org/1999/xlink" viewBox="0 0 448.4 106.11"><defs><style>.cls-1{fill:#051c2c;}.cls-2{fill:url(#linear-gradient);}.cls-3{fill:url(#linear-gradient-2);}.cls-4{fill:url(#linear-gradient-3);}</style><linearGradient id="linear-gradient" x1="383.21" y1="108.38" x2="425.45" y2="39.43" gradientUnits="userSpaceOnUse"><stop offset="0" stop-color="#00567d"/><stop offset="0.56" stop-color="#00567d"/><stop offset="0.56" stop-color="#166589"/><stop offset="0.56" stop-color="#3c809d"/><stop offset="0.56" stop-color="#5a94ad"/><stop offset="0.56" stop-color="#70a3b9"/><stop offset="0.56" stop-color="#7dacc0"/><stop offset="0.56" stop-color="#81afc2"/><stop offset="1" stop-color="#00567d"/></linearGradient><linearGradient id="linear-gradient-2" x1="364.26" y1="96.77" x2="406.49" y2="27.82" xlink:href="#linear-gradient"/><linearGradient id="linear-gradient-3" x1="383.65" y1="108.64" x2="425.88" y2="39.7" xlink:href="#linear-gradient"/></defs><title>Asset 7</title><g id="Layer_2" data-name="Layer 2"><g id="Layer_1-2" data-name="Layer 1"><path class="cls-1" d="M354.12,91.51c-2,0-3.46-.47-3.9-1.22s-.32-1.93.79-3.9c2.62-4.62,33.8-58.51,45.22-78.22l-4.07-7C383,17,347.74,77.89,344.9,82.93c-2.27,4-2.53,7.86-.76,10.9,1,1.76,3.7,4.71,10,4.71H448.4l-4.06-7Z"/><path class="cls-1" d="M386,57.19h8.13c1.78-3.14,4.4-7.77,7.69-13.52l-4-7C393.61,44,389.35,51.45,386,57.19Z"/><path class="cls-1" d="M379.08,69.39l-10.87,19h74.1l-2.95-5.24c-.31-.53-7.42-13.21-9.29-16.27-1.5-2.47-4.28-7.08-11-7.08H379.48c3.95-6.81,13.26-22.92,19.06-32.94q1.24,2.16,2.51,4.32l4,7c2-3.43,3.51-6.14,4.05-7.06-1.34-2.31-2.69-4.62-4-6.93-.83-1.44-1.67-2.89-2.5-4.31l.07-.09-4.06-7a.47.47,0,0,0-.05.1c-1,1.76-2.41,4.16-4.07,7L354.84,88.37h8.06c2.23-3.85,7.08-12.2,12.5-21.56l31.92,0,11.73,0c2.39,0,3.31.89,5,3.7,1.05,1.72,3.95,6.83,6.22,10.83H380.34l6.84-12Z"/><path class="cls-1" d="M6.33,78.3a2.52,2.52,0,0,1,.39-1.69A1.68,1.68,0,0,1,8,76v-.53L0,73v.54c1.42.44,1.68,2.32,1.7,3.67V98.6H16.77V95.11H6.33Z"/><path class="cls-1" d="M40.34,81.7a6.9,6.9,0,0,0-5.89,2.64h-.07V77.17a2.25,2.25,0,0,1,.36-1.29,1.65,1.65,0,0,1,1.31-.58v-.54l-8-2.48v.53c1.48.46,1.72,2.47,1.72,3.83V94c0,1.7-.07,3.53-.14,4.65h4l.22-2.47h.08A6.51,6.51,0,0,0,39.65,99C43.8,99,48,96,48,90.08,48,85.06,44.81,81.7,40.34,81.7Zm-1.74,14a4.21,4.21,0,0,1-4.11-2.93,3.87,3.87,0,0,1-.11-1V89.1A4.35,4.35,0,0,1,34.53,88,4.24,4.24,0,0,1,38.63,85c3.09,0,4.64,2.38,4.64,5.3C43.27,93.58,41.5,95.69,38.6,95.69Z"/><path class="cls-1" d="M59.82,90.9c-.34,1.08-.69,2.31-1,3.26h-.11c-.26-1-.63-2.21-1-3.23l-3.32-8.86H49.3L56,97.24a1.74,1.74,0,0,1,.26.82,1.55,1.55,0,0,1-.3.75,7.68,7.68,0,0,1-2.53,2.62,8.48,8.48,0,0,1-2.71,1.15l1.05,3.53A9.82,9.82,0,0,0,56.65,104c2.18-1.7,3.88-4.45,6.41-10.63l4.59-11.27h-5Z"/><path class="cls-1" d="M84.35,88.66c0-3.6-1.69-7-7.58-7a14.3,14.3,0,0,0-6.62,1.45l.9,2.72A10.57,10.57,0,0,1,76,84.65c3.23,0,3.73,1.8,3.73,2.88v.28c-6.79,0-10.9,2.07-10.9,6.24,0,2.52,2.07,4.93,5.77,4.93A7.14,7.14,0,0,0,80,96.77h.11l.3,1.83h4.19a23.62,23.62,0,0,1-.27-4ZM79.83,92.8a2.62,2.62,0,0,1-.16.92A3.73,3.73,0,0,1,76.07,96c-1.48,0-2.65-.75-2.65-2.38,0-2.51,3.13-3.15,6.41-3.09Z"/><path class="cls-1" d="M99.36,81.7a6.78,6.78,0,0,0-5.85,2.85h-.05A2.32,2.32,0,0,1,93.82,83,1.51,1.51,0,0,1,95,82.46V82l-7.23-2.23v.47a2.27,2.27,0,0,1,1.36,1.85h0c.11,1.42.15,3,.15,4.92V98.6h4.68V88.89a3.93,3.93,0,0,1,.18-1.36,3.87,3.87,0,0,1,3.63-2.44c2.52,0,3.5,1.8,3.5,4.18V98.6h4.63V88.79C105.87,83.56,102.56,81.7,99.36,81.7Z"/><path class="cls-1" d="M145.07,81.7c-5.54,0-9.5,3.32-9.5,8.76s4,8.52,9.21,8.52c4.66,0,9.42-2.72,9.42-8.8C154.2,85.16,150.54,81.7,145.07,81.7ZM144.92,96c-2.82,0-4.56-2.4-4.56-5.6,0-2.75,1.33-5.6,4.6-5.6s4.45,3,4.45,5.54C149.41,93.61,147.56,96,144.92,96Z"/><path class="cls-1" d="M162.18,85.23h-.12v-.45a2.21,2.21,0,0,1,.35-1.54,1.43,1.43,0,0,1,1.13-.51v-.46l-6.93-2.14v.45a2,2,0,0,1,1.24,1.49h0c.12,1.49.15,3.09.15,5.33V98.6h4.64V90.05a6.88,6.88,0,0,1,.14-1.29,4,4,0,0,1,4.15-3.16,7,7,0,0,1,1.36.13V81.79a5.28,5.28,0,0,0-1.09-.09A5.42,5.42,0,0,0,162.18,85.23Z"/><path class="cls-1" d="M178.89,81.7a8.57,8.57,0,0,0-9,8.89c0,5.06,3.51,8.39,9.46,8.39a19,19,0,0,0,6.4-1L185.1,95a15.33,15.33,0,0,1-5.09.75c-2.94,0-5.54-1.29-5.65-4.29h12.28a8.76,8.76,0,0,0,.15-1.76C186.79,86.11,184.88,81.7,178.89,81.7Zm-4.53,6.89a4.28,4.28,0,0,1,4.26-4,3.67,3.67,0,0,1,3.8,4Z"/><path class="cls-1" d="M217,82.07h-.14l-5.5-1.7v.46c1.15.36,1.42,1.78,1.46,2.91l0,.53h-.08a5.9,5.9,0,0,0-5.31-2.57c-4.41,0-8.33,3.29-8.33,8.72,0,4.69,3.24,8.08,7.8,8.08a6.42,6.42,0,0,0,5.36-2.45h.07v1.43c0,3.57-2.26,5-5.28,5a12.15,12.15,0,0,1-5.36-1.25l-1,3.16a14.18,14.18,0,0,0,6.4,1.32,11.39,11.39,0,0,0,7.09-2c1.92-1.56,2.72-4,2.72-7.51V86.82c0-1.12,0-2,0-2.78a1.18,1.18,0,0,1,.27-.56,1.42,1.42,0,0,1,1.12-.51v-.46l-1.3-.4A.06.06,0,0,0,217,82.07Zm-4.78,9.3a6.17,6.17,0,0,1-.2,1.5,3.93,3.93,0,0,1-3.77,2.5c-2.9,0-4.48-2.26-4.48-5.08,0-3.37,1.92-5.41,4.52-5.41A3.8,3.8,0,0,1,212,87.56a3.91,3.91,0,0,1,.16,1.13Z"/><path class="cls-1" d="M231.72,81.7a6.76,6.76,0,0,0-5.84,2.85h-.11l-.07-.74a1.13,1.13,0,0,1,.27-.57,1.42,1.42,0,0,1,1.12-.51v-.46l-6.92-2.14v.45a2.21,2.21,0,0,1,1.31,1.83c.1,1.34.14,2.82.14,4.58V98.6h4.68V88.89a3.93,3.93,0,0,1,.18-1.36,3.87,3.87,0,0,1,3.62-2.44c2.53,0,3.5,1.8,3.5,4.18V98.6h4.64V88.79C238.24,83.56,234.93,81.7,231.72,81.7Z"/><path class="cls-1" d="M263.61,86.31v-.07c2.75-.91,4.22-2.85,4.22-5A4.74,4.74,0,0,0,265.19,77c-1.73-1.09-3.84-1.46-7.27-1.46-.92,0-1.83,0-2.71.08l-5.45-1.69v.46a2.46,2.46,0,0,1,1.41,2.24v21.9a51.59,51.59,0,0,0,5.69.3c4.64,0,7.62-.71,9.43-2.14A5.74,5.74,0,0,0,268.73,92C268.73,88.82,266.29,86.92,263.61,86.31Zm-7.84-7.5a14.12,14.12,0,0,1,2.64-.17c2.94,0,4.74,1,4.74,3.12,0,1.93-1.8,3.3-5,3.3h-2.37Zm2.45,16.88a15.09,15.09,0,0,1-2.45-.11V88.11h2.29c3.22,0,5.77,1.09,5.77,3.74C263.83,94.66,261.2,95.69,258.22,95.69Z"/><path class="cls-1" d="M287.05,88.66c0-3.6-1.69-7-7.58-7a14.35,14.35,0,0,0-6.63,1.45l.9,2.72a10.61,10.61,0,0,1,4.95-1.22c3.23,0,3.73,1.8,3.73,2.88v.28c-6.79,0-10.9,2.07-10.9,6.24,0,2.52,2.07,4.93,5.77,4.93a7.12,7.12,0,0,0,5.42-2.21h.12l.3,1.83h4.18a24.85,24.85,0,0,1-.26-4Zm-4.52,4.14a2.85,2.85,0,0,1-.15.92A3.75,3.75,0,0,1,278.77,96c-1.48,0-2.65-.75-2.65-2.38,0-2.51,3.13-3.15,6.41-3.09Z"/><path class="cls-1" d="M322.93,88.82l6.79-6.75h-5.58l-4.45,5.33c-.49.58-1,1.29-1.47,1.93h-.08V77.05a2.41,2.41,0,0,1,.37-1.5,1.61,1.61,0,0,1,1.25-.56v-.5l-7.65-2.37v.51a2.3,2.3,0,0,1,1.42,1.86h0V98.6h4.63V93l1.59-1.67L325,98.6h5.69Z"/><path class="cls-1" d="M18.44,80.57c1.11.35,1.51,1.58,1.65,2.75V98.6h4.67V85.33a2.55,2.55,0,0,1,.4-1.69,1.68,1.68,0,0,1,1.3-.58v-.53l-8-2.49Z"/><path class="cls-1" d="M117.24,73.92v.48c1.34.42,1.55,2.23,1.55,3.45V80h0V98.6h4.64V88.89h9.34V85.46h-9.34V79.15h10V75.72H123Z"/><path class="cls-1" d="M258.43,53.67h39.86a6.29,6.29,0,0,0,9.77,0h6.59a4.78,4.78,0,0,0,3.94-1.74,5.74,5.74,0,0,0,1.25-3.76V32.78a2.28,2.28,0,0,1,.36-1.52,1.49,1.49,0,0,1,1.18-.54v-.48L314.3,28v.49c1.29.4,1.53,2.1,1.55,3.32V47.4c0,1.85-.69,2.79-2,2.79l-4.33,0a6,6,0,0,0,.07-.61,6.39,6.39,0,0,0-12.77,0,5.23,5.23,0,0,0,.06.57h-7.09v-.06h-.55c0-2.08-1.87-9.94-7.3-9.49a26.73,26.73,0,0,0-14.12,6.1V43.82l-2.93,3.35v2.95h-6c0-.4,0-.8,0-1.2V43.57a2.3,2.3,0,0,1,.37-1.62,1.51,1.51,0,0,1,1.19-.54v-.48l-7.09-2.26v.49c1.34.42,1.55,2.25,1.55,3.47v.84s0,0,0,0v7.7c-.24,5.71-2.43,7.86-6.82,9.05,1.12.09,2.5.12,2.91.12C255.75,60.36,257.69,57.34,258.43,53.67Zm44.75-7.08a3,3,0,1,1-3,3A3,3,0,0,1,303.18,46.59Zm-22.7-2.15c3.11-.27,4.54,3.5,5,5.68H269.1C271.28,47.39,276.78,44.75,280.48,44.44Z"/><rect class="cls-1" x="178.03" y="56.48" width="3.35" height="3.63" transform="translate(6.89 134.62) rotate(-41.8)"/><rect class="cls-1" x="172.88" y="56.48" width="3.35" height="3.62" transform="translate(5.5 131) rotate(-41.74)"/><polygon class="cls-1" points="163.44 58.05 165.86 60.76 168.35 58.53 165.94 55.82 163.44 58.05"/><rect class="cls-1" x="243.2" y="32.88" width="3.35" height="3.63" transform="translate(39.38 172.32) rotate(-41.88)"/><path class="cls-1" d="M120.84,53.67V32.89a2.39,2.39,0,0,1,.37-1.63,1.51,1.51,0,0,1,1.18-.54v-.48L115.31,28v.49c1.34.42,1.55,2.25,1.55,3.47v2.2h0V53.67Z"/><path class="cls-1" d="M11.62,60.41a10.12,10.12,0,0,0,7.18-2.87l.25-.25A9.11,9.11,0,0,0,21.35,51V45a1.06,1.06,0,0,1,1-.88.9.9,0,0,1,1,.79v3.26a5.69,5.69,0,0,0,1.25,3.76,4.75,4.75,0,0,0,3.93,1.74H60V51.09c0-3.88-.79-6.17-2.68-8.06-1.6-1.59-3.79-3.09-8.47-3.09h-8c-1.23,0-3.06-.18-3.48-1.24h-.48l2.25,5.65h.48a1.08,1.08,0,0,1,.37-.78h9.75c2.55,0,5.86,3.58,5.86,6.62H28.8A1.77,1.77,0,0,1,27,49l-.27-3.11v-.93h0v-.75a4.6,4.6,0,0,0-9.19,0h0v6.21c-.14,3.57-2.63,5.6-6.22,5.75-5.84.23-10-2.62-9.74-9.44H1.18c-.53,5.92.79,8.69,3,10.85A10.5,10.5,0,0,0,11.62,60.41Z"/><rect class="cls-1" x="12.44" y="63.01" width="3.34" height="3.63" transform="translate(-39.58 25.86) rotate(-41.75)"/><rect class="cls-1" x="7.29" y="63.01" width="3.35" height="3.62" transform="translate(-40.88 22.41) rotate(-41.74)"/><rect class="cls-1" x="46.36" y="56.48" width="3.35" height="3.62" transform="translate(-26.62 46.84) rotate(-41.79)"/><rect class="cls-1" x="86.56" y="33.29" width="3.35" height="3.63" transform="translate(-0.96 67.68) rotate(-41.76)"/><path class="cls-1" d="M210.78,31.94v2.2h0V53.67h3.94V32.89a2.33,2.33,0,0,1,.37-1.63,1.49,1.49,0,0,1,1.18-.54v-.48L209.22,28v.49C210.56,28.89,210.78,30.72,210.78,31.94Z"/><path class="cls-1" d="M180.28,53.67h21.18a4.74,4.74,0,0,0,3.93-1.74,5.69,5.69,0,0,0,1.26-3.76V32.89a2.33,2.33,0,0,1,.37-1.63,1.48,1.48,0,0,1,1.18-.54v-.48L201.12,28v.49c1.28.4,1.53,2.1,1.54,3.32V47.4c0,1.85-.68,2.79-2,2.79l-5.13,0a6.39,6.39,0,0,0,.32-2V32.89a2.33,2.33,0,0,1,.37-1.63,1.48,1.48,0,0,1,1.18-.54v-.48L190.3,28v.49c1.34.42,1.55,2.25,1.55,3.47V47.4c0,1.85-.69,2.79-2,2.79l-4.66,0a6.72,6.72,0,0,0,.31-2V44a2.28,2.28,0,0,1,.36-1.52A1.49,1.49,0,0,1,187,42v-.48l-7.08-2.26v.49c1.34.41,1.55,2.24,1.55,3.47V47.4c0,1.85-.68,2.79-2,2.79l-6.29,0a6.39,6.39,0,0,0,.32-2V44.11a2.32,2.32,0,0,1,.37-1.62A1.48,1.48,0,0,1,175,42v-.48l-7.09-2.26v.49c1.29.4,1.53,2.09,1.55,3.32V47.4c0,1.85-.68,2.79-2,2.79H155.61A1.73,1.73,0,0,1,153.87,49l-.28-3.11v-.93h0v-.75a4.59,4.59,0,0,0-9.18,0h0v6.21c-.13,3.57-2.61,5.6-6.22,5.75-5.83.23-10-2.62-9.73-9.44H128c-.54,5.92.77,8.69,3,10.85a10.59,10.59,0,0,0,7.46,2.87,10.11,10.11,0,0,0,7.17-2.87,3,3,0,0,0,.25-.25,9.11,9.11,0,0,0,2.3-6.32c0-.19,0-.38,0-.57V45a1,1,0,0,1,1-.88.9.9,0,0,1,1,.79h0v3.26a5.69,5.69,0,0,0,1.26,3.76,4.76,4.76,0,0,0,3.93,1.74h24.92Z"/><path class="cls-1" d="M107.2,28.47c1.33.42,1.55,2.25,1.55,3.47V47.4c0,1.85-.69,2.79-2,2.79h-1.09c-.12-3.31-.9-5.44-2.62-7.17s-3.79-3.09-8.46-3.09H86.49c-1.23,0-3-.18-3.47-1.24h-.48l2.26,5.65h.47a1.08,1.08,0,0,1,.37-.78h9.75c2.55,0,5.86,3.58,5.86,6.62H77.82c-1.35,0-2-.94-2-2.79V32.58a2.18,2.18,0,0,1,.35-1.32,1.5,1.5,0,0,1,1.19-.54v-.48L70.24,28v.49c1.34.42,1.56,2.25,1.56,3.47V48.17a5.64,5.64,0,0,0,1.26,3.76A4.74,4.74,0,0,0,77,53.67h2.3l.07.06,26.33-.06h1.85a4.77,4.77,0,0,0,3.94-1.74,5.69,5.69,0,0,0,1.26-3.76V32.78a2.22,2.22,0,0,1,.36-1.52,1.48,1.48,0,0,1,1.18-.54v-.48L107.2,28Z"/><path class="cls-1" d="M69.78,40.94,62.7,38.68v.49c1.34.42,1.54,2.24,1.54,3.47v2.2h0v6.35c-.24,5.71-2.43,7.86-6.83,9.05,1.13.09,2.52.12,2.91.12,6.8,0,7.9-6,7.9-11.44V43.37A2.21,2.21,0,0,1,68.6,42a1.5,1.5,0,0,1,1.18-.53Z"/><path class="cls-1" d="M324,31.94v2.2h0V53.67h3.93V32.89a2.39,2.39,0,0,1,.37-1.63,1.51,1.51,0,0,1,1.19-.54v-.48L322.41,28v.49C323.75,28.89,324,30.72,324,31.94Z"/><path class="cls-1" d="M251,46.34h0a1.23,1.23,0,0,0,0-.2,6.38,6.38,0,1,0-12.76,0,6.3,6.3,0,0,0,1.48,4H228.56c-3,0-5.07-1.52-5.7-4.79a20,20,0,0,0,.26,4.72,4.1,4.1,0,0,0,4,3.55h17.3l0-.05A6.86,6.86,0,0,0,251,46.34ZM244.48,49a3,3,0,1,1,3-3A3,3,0,0,1,244.48,49Z"/><rect class="cls-1" x="139.26" y="63.01" width="3.34" height="3.62" transform="translate(-7.3 110.54) rotate(-41.84)"/><polygon class="cls-1" points="138.24 65.06 135.82 62.36 133.32 64.58 135.74 67.28 138.24 65.06"/><path class="cls-1" d="M301.84,81.7A6.73,6.73,0,0,0,296,84.55h-.12l-.07-.75a1.13,1.13,0,0,1,.27-.56,1.43,1.43,0,0,1,1.12-.51v-.46l-6.92-2.14v.45a2.19,2.19,0,0,1,1.31,1.82c.1,1.35.14,2.83.14,4.59V98.6h4.68V88.89a4.19,4.19,0,0,1,.18-1.36,3.87,3.87,0,0,1,3.62-2.44c2.52,0,3.5,1.8,3.5,4.18V98.6h4.65V88.79C308.36,83.56,305,81.7,301.84,81.7Z"/><rect class="cls-1" x="20.56" y="74.82" width="3.7" height="4.01" transform="translate(-45.42 34.36) rotate(-41.69)"/><path class="cls-1" d="M188.82,80.57c1.11.35,1.52,1.59,1.66,2.77V98.6h4.67V85.22a2.43,2.43,0,0,1,.39-1.58,1.68,1.68,0,0,1,1.31-.58v-.53l-8-2.49Z"/><rect class="cls-1" x="190.94" y="74.82" width="3.7" height="4.01" transform="translate(-2.15 148.02) rotate(-41.79)"/><path class="cls-2" d="M353.6,90.37c-2,0-3.46-.47-3.9-1.22s-.32-1.93.79-3.9C353.11,80.63,384.3,26.73,395.71,7l-4.06-7c-9.18,15.86-44.42,76.75-47.27,81.79-2.26,4-2.52,7.86-.75,10.91,1,1.75,3.69,4.71,10,4.71h94.29l-4.07-7Z"/><path class="cls-3" d="M385.52,56.05h8.13c1.78-3.14,4.4-7.77,7.69-13.52l-4-7C393.09,42.86,388.83,50.31,385.52,56.05Z"/><path class="cls-4" d="M378.56,68.25l-10.87,19h74.09L438.84,82c-.3-.54-7.43-13.2-9.28-16.27-1.5-2.47-4.28-7.07-11-7.07H379c4-6.82,13.28-22.92,19.08-32.95l2.5,4.33c1.35,2.32,2.69,4.65,4,7,1.95-3.43,3.51-6.14,4-7l-4-6.94-2.5-4.31a.41.41,0,0,0,.05-.09l-4.05-7a.33.33,0,0,1-.06.1c-1,1.76-2.4,4.16-4.06,7L354.32,87.23h8.06c2.23-3.85,7.08-12.2,12.5-21.56l31.92,0,11.74,0c2.39,0,3.3.89,5,3.7,1,1.73,4,6.83,6.22,10.83H379.82l6.85-12Z"/></g></g></svg>