<svg id="nub_invers_logo" data-name="nub invers logo" xmlns="http://www.w3.org/2000/svg" width="150.073" height="85.003" viewBox="0 0 150.073 85.003">
  <path id="Path_6910" data-name="Path 6910" d="M92.071,0s1.808,7.378,2.686,21.064c18.176-2.7,26.854-11.492,31.3-17.917C104.146,2.959,92.071,0,92.071,0" transform="translate(-14.11)" fill="#114075"/>
  <path id="Path_6911" data-name="Path 6911" d="M130.861,3.723h0c-.727.015-1.479.015-2.235.015-.706,0-1.389,0-2.064-.015-4.444,6.423-13.126,15.215-31.306,17.92.289,4.365.47,9.366.47,14.981,0,5.392-.172,10.23-.432,14.475a92.606,92.606,0,0,0,16.028-3.534c9.69-8.8,17.563-22.524,19.538-43.842M95.3,51.178v0Z" transform="translate(-14.598 -0.571)" fill="#0093b4"/>
  <path id="Path_6912" data-name="Path 6912" d="M164.46,0a97.758,97.758,0,0,1-9.7,1.624c-6.736,23.163-23.584,44.1-59.673,48.892v0c-.309,4.953-.741,9.1-1.181,12.388C122.44,60.183,144.418,52,161.362,41.256c-.037-1.677-.069-3.4-.069-5.2C161.293,12.828,164.46,0,164.46,0" transform="translate(-14.391)" fill="#006dac"/>
  <path id="Path_6913" data-name="Path 6913" d="M133.757,3.435h.005c-1.988,21.339-9.862,35.048-19.537,43.853,25.242-8.089,38-25.945,43.65-45.37a207.6,207.6,0,0,1-24.118,1.517" transform="translate(-17.505 -0.294)" fill="#81ccd6"/>
  <path id="Path_6914" data-name="Path 6914" d="M95.2,59.026c-.157,2.475-.35,4.754-.538,6.821A56.814,56.814,0,0,0,111.228,55.5,92.854,92.854,0,0,1,95.2,59.026" transform="translate(-14.507 -8.505)" fill="#114075"/>
  <path id="Path_6915" data-name="Path 6915" d="M93.631,70.369a.265.265,0,0,0,.028-.076c-.815,6.088-1.588,9.286-1.588,9.286s12.833-3.164,36.048-3.164c23.242,0,36.063,3.164,36.063,3.164s-2.685-10.928-3.1-30.856c-16.944,10.74-38.922,18.93-67.45,21.646" transform="translate(-14.11 -7.467)" fill="#3da3be"/>
  <path id="Path_6916" data-name="Path 6916" d="M44.912,17.412h3.2V13.456a2.951,2.951,0,0,1,.628-2.11A2.641,2.641,0,0,1,50.62,10.7h2.565a2.532,2.532,0,0,1,1.87.644,2.85,2.85,0,0,1,.66,2.11v3.694a4.039,4.039,0,0,1-.165,1.252,2.061,2.061,0,0,1-.5.859,1.852,1.852,0,0,1-.774.5,3.523,3.523,0,0,1-1.086.157H44.912Zm8.273,0v-4.23H50.62v4.23Zm-11.886,0V14.861H33.668v2.551Zm3.613,0v2.5h-13.8v-2.5h.008v-6.2a.5.5,0,0,1,.161-.372.544.544,0,0,1,.4-.161h1.448a.5.5,0,0,1,.368.161.509.509,0,0,1,.175.383v1.158H41.3a2.5,2.5,0,0,1,1.855.638,2.921,2.921,0,0,1,.649,2.114v2.274Zm-23.924,0H31.77v2.5H20.988Zm-5.955,5.061a3.149,3.149,0,0,0,.832-.141,2.34,2.34,0,0,0,.729-.323,1.985,1.985,0,0,0,.561-.594,1.759,1.759,0,0,0,.333-.927v-9.27a.523.523,0,0,1,.144-.375.509.509,0,0,1,.387-.161h1.451a.512.512,0,0,1,.373.161.5.5,0,0,1,.152.375l-.031,6.2h1.025v2.5H19.962a6.8,6.8,0,0,1-.484,1.943,4.939,4.939,0,0,1-.913,1.5,4.421,4.421,0,0,1-1.312,1.032,5.276,5.276,0,0,1-1.649.543l-.006.008c-.119.019-.22.026-.322.04s-.206.019-.312.019H14.85c-.043,0-.09-.015-.152-.022a.783.783,0,0,1-.423-.171.48.48,0,0,1-.174-.368V23.02a.531.531,0,0,1,.156-.388.518.518,0,0,1,.385-.159ZM10.337,7.7a1.107,1.107,0,0,1-.1.486,1.2,1.2,0,0,1-.271.4,1.346,1.346,0,0,1-.4.268,1.311,1.311,0,0,1-.489.1,1.228,1.228,0,0,1-.48-.1,1.268,1.268,0,0,1-.389-.268,1.191,1.191,0,0,1-.268-.4,1.164,1.164,0,0,1,0-.963,1.224,1.224,0,0,1,.268-.408A1.073,1.073,0,0,1,8.6,6.559a1.037,1.037,0,0,1,.48-.1,1.1,1.1,0,0,1,.489.1,1.192,1.192,0,0,1,.4.259,1.233,1.233,0,0,1,.271.408A1.1,1.1,0,0,1,10.337,7.7Zm-2.561,9.71h2.561v-4.23H7.776Zm-5,0H5.271V13.456a2.9,2.9,0,0,1,.644-2.11A2.552,2.552,0,0,1,7.776,10.7h2.567a2.57,2.57,0,0,1,1.871.644,2.9,2.9,0,0,1,.646,2.11v3.694A4.34,4.34,0,0,1,12.7,18.4a2.078,2.078,0,0,1-.484.859,2,2,0,0,1-.787.5,3.44,3.44,0,0,1-1.063.157h-7.6a3.5,3.5,0,0,1-1.076-.157,1.987,1.987,0,0,1-.788-.5A2.053,2.053,0,0,1,.417,18.4,4.151,4.151,0,0,1,.248,17.14V16.3A.5.5,0,0,1,.4,15.929a.546.546,0,0,1,.378-.16H2.227a.557.557,0,0,1,.4.16.511.511,0,0,1,.156.372Z" transform="translate(-0.038 -0.99)" fill="#fff"/>
  <path id="Path_6917" data-name="Path 6917" d="M65.553,6.715a.545.545,0,0,1,.164-.414.594.594,0,0,1,.428-.18h1.577a.542.542,0,0,1,.412.18.6.6,0,0,1,.174.414v39.9a.6.6,0,0,1-.174.411.573.573,0,0,1-.412.16H66.146a.63.63,0,0,1-.428-.16.559.559,0,0,1-.164-.411Zm-5.479,37.67V6.715a.525.525,0,0,1,.175-.414.556.556,0,0,1,.418-.18h1.576a.554.554,0,0,1,.412.18.6.6,0,0,1,.157.414V44.083a4.478,4.478,0,0,1-.18,1.377,2.363,2.363,0,0,1-.538.942,2.075,2.075,0,0,1-.854.543,3.878,3.878,0,0,1-1.169.169H58.858V44.385ZM55.55,33.75a1.116,1.116,0,0,1-.116.529,1.313,1.313,0,0,1-.291.438,1.641,1.641,0,0,1-.448.29,1.325,1.325,0,0,1-.522.11,1.375,1.375,0,0,1-.54-.11,1.338,1.338,0,0,1-.436-.29,1.665,1.665,0,0,1-.307-.438,1.632,1.632,0,0,1-.107-.529,1.656,1.656,0,0,1,.107-.533,1.934,1.934,0,0,1,.307-.437,1.383,1.383,0,0,1,.436-.292,1.4,1.4,0,0,1,.54-.109,1.355,1.355,0,0,1,.522.109,1.708,1.708,0,0,1,.448.292,1.362,1.362,0,0,1,.291.437A1.132,1.132,0,0,1,55.55,33.75Zm-.025,10.623h3.515v2.74H38.319v-2.74h14.45V37.618a.611.611,0,0,1,.165-.411.568.568,0,0,1,.417-.175h1.566a.61.61,0,0,1,.442.175.593.593,0,0,1,.165.411ZM29.667,52.66a.728.728,0,0,1-.456-.18.494.494,0,0,1-.2-.4V50.521A.541.541,0,0,1,29.2,50.1a.58.58,0,0,1,.423-.179h.27c.1,0,.2.023.306.027.124,0,.257,0,.382,0h.391a6.733,6.733,0,0,0,1.108-.1,2.767,2.767,0,0,0,1.011-.387,2.855,2.855,0,0,0,.82-.86,4.319,4.319,0,0,0,.517-1.494H31.486a3.944,3.944,0,0,1-1.181-.169,2.166,2.166,0,0,1-.859-.543,2.394,2.394,0,0,1-.539-.942,4.851,4.851,0,0,1-.178-1.369V40.046a3.114,3.114,0,0,1,.717-2.307,2.809,2.809,0,0,1,2.04-.707H34.3a2.772,2.772,0,0,1,2.04.707,3.169,3.169,0,0,1,.693,2.3v4.329h1.288v2.74H37.031a7.514,7.514,0,0,1-.671,2.4,5.614,5.614,0,0,1-1.309,1.758,5.525,5.525,0,0,1-1.885,1.072,7.355,7.355,0,0,1-2.362.364c-.171,0-.352,0-.528-.007s-.394-.045-.6-.045Zm1.819-8.287h2.789V39.747H31.486ZM20.793,49.916a3.8,3.8,0,0,0,.915-.15,2.449,2.449,0,0,0,.787-.361,2.119,2.119,0,0,0,.615-.645,1.967,1.967,0,0,0,.361-1.013V37.516a.472.472,0,0,1,.152-.372.565.565,0,0,1,.388-.135H25.8a.387.387,0,0,1,.322.135.569.569,0,0,1,.119.372L26.208,46.7a7.06,7.06,0,0,1-.345,2.268,5.229,5.229,0,0,1-.948,1.754,5.116,5.116,0,0,1-1.5,1.225,6.192,6.192,0,0,1-1.966.666h-.01a.064.064,0,0,0-.026,0c-.113.015-.229.04-.345.048a2.21,2.21,0,0,1-.337.021H20.58a.968.968,0,0,1-.161-.026.892.892,0,0,1-.455-.18.542.542,0,0,1-.2-.406V50.514a.586.586,0,0,1,.183-.417.561.561,0,0,1,.425-.18ZM14.962,31.844a.6.6,0,0,1,.6-.588h1.584a.591.591,0,0,1,.584.588V46.61a.561.561,0,0,1-.175.411.611.611,0,0,1-.409.16H15.561a.607.607,0,0,1-.421-.16.569.569,0,0,1-.178-.411ZM7.033,35.5a1.278,1.278,0,0,1-.118.533,1.4,1.4,0,0,1-.3.434,1.317,1.317,0,0,1-.428.291,1.338,1.338,0,0,1-.534.11,1.275,1.275,0,0,1-.523-.11,1.33,1.33,0,0,1-.438-.291,1.409,1.409,0,0,1-.295-.434,1.359,1.359,0,0,1-.11-.533,1.406,1.406,0,0,1,.11-.532,1.481,1.481,0,0,1,.295-.438,1.4,1.4,0,0,1,.438-.29,1.318,1.318,0,0,1,.523-.111,1.384,1.384,0,0,1,.534.111,1.369,1.369,0,0,1,.428.29,1.41,1.41,0,0,1,.3.438A1.322,1.322,0,0,1,7.033,35.5Zm5.259,11.136v-.015a5.831,5.831,0,0,1-.248,1.626A6.493,6.493,0,0,1,9.1,51.918a6.587,6.587,0,0,1-1.5.62,5.878,5.878,0,0,1-1.666.222,5.975,5.975,0,0,1-2.738-.671,5.4,5.4,0,0,1-1.853-1.6A6.753,6.753,0,0,1,.3,48.2,11.41,11.41,0,0,1,0,45.469v-2.3a.592.592,0,0,1,.169-.416.555.555,0,0,1,.417-.174h1.6a.527.527,0,0,1,.41.183.653.653,0,0,1,.174.418v2.262c0,.326,0,.672.025,1.026a6.713,6.713,0,0,0,.167,1.036,4.571,4.571,0,0,0,.352.967,2.7,2.7,0,0,0,.618.791,2.821,2.821,0,0,0,.965.535,4.369,4.369,0,0,0,1.358.2,3.6,3.6,0,0,0,1.71-.361,2.654,2.654,0,0,0,1-.879,3.06,3.06,0,0,0,.473-1.189A7.142,7.142,0,0,0,9.551,46.3V37.633a.56.56,0,0,1,.18-.408.572.572,0,0,1,.412-.179H11.72a.584.584,0,0,1,.591.587Z" transform="translate(0 -0.938)" fill="#fff"/>
  <path id="Path_6918" data-name="Path 6918" d="M5.585,79.9V73.259a.181.181,0,0,0-.185-.183H4.557a.184.184,0,0,0-.191.183v5.108c0,.062-.023.09-.048.09s-.057-.028-.078-.08L1.956,73.387c-.116-.256-.225-.311-.428-.311H.466a.388.388,0,0,0-.391.387v6.632a.193.193,0,0,0,.2.192H1.1a.185.185,0,0,0,.19-.192V75.209c0-.058.02-.076.051-.076s.059.019.085.076l2.18,4.73a.525.525,0,0,0,.594.348h.994a.394.394,0,0,0,.391-.385" transform="translate(-0.011 -11.199)" fill="#fff"/>
  <path id="Path_6919" data-name="Path 6919" d="M14.717,77.619v-4.36a.187.187,0,0,0-.2-.183h-.967a.186.186,0,0,0-.2.183v4.36c0,1.108-.275,1.629-1.333,1.629s-1.336-.521-1.336-1.629v-4.36a.188.188,0,0,0-.2-.183H9.527a.191.191,0,0,0-.2.183v4.36c0,2.068,1.119,2.749,2.7,2.749s2.692-.681,2.692-2.749" transform="translate(-1.429 -11.199)" fill="#fff"/>
  <path id="Path_6920" data-name="Path 6920" d="M22.152,75.259c0,.853-.464,1.125-1.478,1.125-.169,0-.716-.021-.876-.028V74.165c.18-.019.669-.04.876-.04.982,0,1.478.314,1.478,1.042Zm1.583,4.9a.118.118,0,0,0-.021-.075l-1.539-2.84a1.969,1.969,0,0,0,1.329-1.98v-.092c0-1.666-1.315-2.195-2.829-2.195a13.055,13.055,0,0,0-1.921.125c-.2.028-.313.1-.313.291v6.69a.2.2,0,0,0,.2.192h.975a.178.178,0,0,0,.182-.192V77.443c.234.011.616.04.876.04h.138l1.412,2.6c.046.1.091.192.2.192h1.2A.1.1,0,0,0,23.735,80.154Z" transform="translate(-2.826 -11.183)" fill="#fff"/>
  <path id="Path_6921" data-name="Path 6921" d="M30.26,77.15H28.543l.7-2.887c.038-.117.063-.153.156-.153s.13.036.161.153Zm2.121,2.957c0-.011-.006-.029-.006-.048l-1.609-6.095a1.432,1.432,0,0,0-2.727,0l-1.608,6.095c0,.019-.008.037-.008.048a.162.162,0,0,0,.176.163h1.034a.2.2,0,0,0,.191-.163l.455-1.848h2.247l.456,1.848a.2.2,0,0,0,.189.163h1.045A.162.162,0,0,0,32.381,80.107Z" transform="translate(-4.049 -11.182)" fill="#fff"/>
  <path id="Path_6922" data-name="Path 6922" d="M41.124,79.9V73.259a.182.182,0,0,0-.188-.183H40.1a.188.188,0,0,0-.192.183v5.108c0,.062-.025.09-.047.09s-.062-.028-.077-.08L37.5,73.387c-.124-.256-.234-.311-.439-.311H36.008a.4.4,0,0,0-.4.387v6.632a.2.2,0,0,0,.2.192h.834a.191.191,0,0,0,.193-.192V75.209c0-.058.01-.076.05-.076.017,0,.058.019.088.076l2.178,4.73a.522.522,0,0,0,.588.348h.992a.389.389,0,0,0,.394-.385" transform="translate(-5.457 -11.199)" fill="#fff"/>
  <path id="Path_6923" data-name="Path 6923" d="M51.629,78.229c0,.682-.39,1-1.65,1-.208,0-.568-.018-.788-.018V77.074h1.244c.919,0,1.195.5,1.195,1.032Zm-.042-3.073c0,.5-.253.926-1.152.926H49.191V74.11c.2-.012.476-.022.706-.022,1.263,0,1.69.251,1.69.937Zm1.381,3.095v-.168a1.5,1.5,0,0,0-.952-1.477,1.524,1.524,0,0,0,.905-1.469v-.192c0-1.47-1.242-1.974-3.025-1.974a13.241,13.241,0,0,0-1.636.095.455.455,0,0,0-.453.525v6.126c0,.361.155.47.474.528a10.354,10.354,0,0,0,1.7.106C51.81,80.351,52.968,79.8,52.968,78.252Z" transform="translate(-7.326 -11.183)" fill="#fff"/>
  <path id="Path_6924" data-name="Path 6924" d="M59.616,77.15H57.877l.713-2.887c.031-.117.052-.153.157-.153s.13.036.152.153Zm2.114,2.957a.428.428,0,0,1-.011-.048L60.1,73.964a1.258,1.258,0,0,0-1.357-1,1.245,1.245,0,0,0-1.355,1l-1.611,6.095c0,.019-.018.037-.018.048a.169.169,0,0,0,.181.163h1.04a.207.207,0,0,0,.185-.163l.439-1.848h2.271l.448,1.848a.2.2,0,0,0,.174.163h1.041A.175.175,0,0,0,61.73,80.107Z" transform="translate(-8.546 -11.182)" fill="#fff"/>
  <path id="Path_6925" data-name="Path 6925" d="M70.477,79.9V73.259a.186.186,0,0,0-.191-.183h-.834a.19.19,0,0,0-.2.183v5.108c0,.062-.025.09-.053.09s-.049-.028-.068-.08l-2.29-4.991c-.124-.256-.225-.311-.429-.311H65.358a.389.389,0,0,0-.4.387v6.632a.2.2,0,0,0,.2.192H66a.185.185,0,0,0,.181-.192V75.209c0-.058.022-.076.047-.076a.088.088,0,0,1,.08.076l2.174,4.73a.542.542,0,0,0,.615.348h.984a.4.4,0,0,0,.4-.385" transform="translate(-9.955 -11.199)" fill="#fff"/>
  <path id="Path_6926" data-name="Path 6926" d="M79.57,80.2a.254.254,0,0,0-.052-.12l-2.53-3.518L79.5,73.346a.386.386,0,0,0,.067-.157c0-.066-.052-.113-.194-.113H78.27c-.113,0-.193.007-.235.077l-2.394,3.2V73.259a.2.2,0,0,0-.207-.183h-.972a.176.176,0,0,0-.188.183v6.836a.182.182,0,0,0,.188.192h.972a.2.2,0,0,0,.207-.192v-3.23l2.23,3.318c.049.079.115.1.241.1h1.3c.1,0,.156-.025.156-.083" transform="translate(-11.382 -11.199)" fill="#fff"/>
  <path id="Path_6927" data-name="Path 6927" d="M52.278,95.769a.614.614,0,1,1-1.228,0,.617.617,0,0,1,.619-.621.605.605,0,0,1,.609.621m6.075-2.235-.067-.544a1.653,1.653,0,0,0-.493-.06c-.786,0-1.17.48-1.17,1.459,0,.782.271,1.174.791,1.174.667,0,1.011-.424,1.011-1.249A6.4,6.4,0,0,0,58.354,93.533Zm.974-1.035-.091.97v1.29c0,1.087-.69,1.641-2.085,1.641h-2.26a.611.611,0,0,0-.677.7v1.212l-.913-.625v-.837a1.239,1.239,0,0,1,1.371-1.282h1.3a2.117,2.117,0,0,1-.268-1,2.121,2.121,0,0,1,2.286-2.277A4.238,4.238,0,0,1,59.327,92.5Zm2.118,3.27a.608.608,0,0,1-.614.631.618.618,0,0,1-.612-.631.631.631,0,0,1,.612-.621A.6.6,0,0,1,61.445,95.769Zm8.786-6.242a.569.569,0,0,1-1.137,0,.581.581,0,0,1,.568-.577A.571.571,0,0,1,70.231,89.527Zm.744,1.445a.555.555,0,0,1-.585.553.568.568,0,0,1-.573-.561.579.579,0,0,1,1.158.008Zm-1.482,0a.558.558,0,0,1-.576.553.568.568,0,0,1-.574-.561.575.575,0,0,1,1.15.008Zm3.114,4.075A1.257,1.257,0,0,1,71.263,96.4a1.635,1.635,0,0,1-1.239-.533,1.34,1.34,0,0,1-1.14.533,1.589,1.589,0,0,1-1.05-.373,2.686,2.686,0,0,1-.758,1.812,2.655,2.655,0,0,1-2.066.8,2.381,2.381,0,0,1-2.005-.878,3.481,3.481,0,0,1-.628-2.225v-1.8h.92V95.5c0,1.561.677,2.512,1.836,2.512a1.549,1.549,0,0,0,1.246-.638,2.85,2.85,0,0,0,.537-1.786V92.853l.926-.227v2.637a1.144,1.144,0,0,0,.809.31c.443,0,.649-.248.649-.739V93.027l.931-.2v2.4a1.067,1.067,0,0,0,.787.351c.448,0,.66-.248.66-.739V93.92l-.159-1.207,1.088-.255ZM50.154,90.4v5.3A2.616,2.616,0,0,1,49.4,97.69a2.767,2.767,0,0,1-2.065.759,2.469,2.469,0,0,1-2.014-.835,3.308,3.308,0,0,1-.615-2.13V93.763h.921v1.685c0,1.488.672,2.4,1.853,2.4a1.576,1.576,0,0,0,1.238-.633,2.58,2.58,0,0,0,.526-1.686V91.912l-.2-1.246Z" transform="translate(-6.851 -13.631)" fill="#fff" fill-rule="evenodd"/>
  <path id="Path_6928" data-name="Path 6928" d="M127.308,60.434h3.566l4.085,9.55v-9.55h2.668v13.1h-3.572l-4.113-9.571v9.571h-2.633Z" transform="translate(-19.509 -9.261)" fill="#fff"/>
  <path id="Path_6929" data-name="Path 6929" d="M142.554,60.434h3.114v8.379a3.958,3.958,0,0,0,.417,2.126,1.586,1.586,0,0,0,1.4.594,1.625,1.625,0,0,0,1.432-.594,4,4,0,0,0,.412-2.126V60.434h2.957v8.041a5.646,5.646,0,0,1-1.192,3.976,5.89,5.89,0,0,1-7.349.008,5.714,5.714,0,0,1-1.19-3.984Z" transform="translate(-21.846 -9.261)" fill="#fff"/>
  <path id="Path_6930" data-name="Path 6930" d="M157.144,60.434H161.3a5.659,5.659,0,0,1,3.359.809,2.928,2.928,0,0,1,1.088,2.509,2.972,2.972,0,0,1-.63,1.972,3.031,3.031,0,0,1-1.826.995,3.388,3.388,0,0,1,2.074,1.047,3.271,3.271,0,0,1,.679,2.2,3.135,3.135,0,0,1-1.189,2.7,6.3,6.3,0,0,1-3.691.868h-4.02Zm2.964,2.187v3.194h.7a2.449,2.449,0,0,0,1.5-.372,1.432,1.432,0,0,0,.463-1.2,1.482,1.482,0,0,0-.475-1.239,2.424,2.424,0,0,0-1.538-.388Zm0,5.21v3.493h.76a2.725,2.725,0,0,0,1.658-.4,1.576,1.576,0,0,0,.516-1.314,1.649,1.649,0,0,0-.516-1.359,2.637,2.637,0,0,0-1.658-.417Z" transform="translate(-24.082 -9.261)" fill="#fff"/>
</svg>
